<svg width="41" height="40" viewBox="0 0 41 40" fill="none" xmlns="http://www.w3.org/2000/svg">
<g filter="url(#filter0_d_115_8)">
<path d="M20.6871 32C17.6197 32 14.8425 31.2815 12.3555 29.8446C9.86842 28.4352 7.90642 26.5147 6.46946 24.0829C5.06013 21.6235 4.35547 18.9292 4.35547 16C4.35547 13.0984 5.06013 10.4318 6.46946 8C7.87878 5.54059 9.82697 3.5924 12.314 2.15544C14.8011 0.718481 17.5921 0 20.6871 0C23.7268 0 26.4764 0.718481 28.9358 2.15544C31.4228 3.5924 33.3572 5.52677 34.7389 7.95855C36.1482 10.3903 36.8529 13.0432 36.8529 15.9171C36.8529 18.4594 36.2864 20.5458 35.1534 22.1762C34.048 23.8066 32.4729 24.6218 30.428 24.6218C29.3779 24.6218 28.4246 24.3592 27.5679 23.8342C26.7389 23.2815 26.1033 22.5354 25.6612 21.5959C25.0256 22.563 24.2104 23.3092 23.2156 23.8342C22.2484 24.3592 21.143 24.6218 19.8995 24.6218C18.4073 24.6218 17.0532 24.2625 15.8373 23.544C14.6214 22.8256 13.6543 21.8307 12.9358 20.5596C12.2173 19.2608 11.8581 17.7962 11.8581 16.1658C11.8581 14.563 12.2173 13.1123 12.9358 11.8135C13.6543 10.5147 14.6076 9.50605 15.7959 8.78757C17.0118 8.06909 18.3244 7.70985 19.7337 7.70985C20.7562 7.70985 21.6819 7.9171 22.5109 8.33161C23.3676 8.74611 24.086 9.31261 24.6663 10.0311H24.9151V8.29016H28.3969V18.8187C28.3969 19.5371 28.5904 20.1727 28.9772 20.7254C29.3641 21.2504 29.9306 21.513 30.6767 21.513C31.6715 21.513 32.3762 20.9741 32.7907 19.8964C33.2328 18.791 33.4539 17.4646 33.4539 15.9171C33.4539 13.6511 32.8874 11.5648 31.7544 9.65803C30.6491 7.72366 29.1154 6.18998 27.1534 5.057C25.219 3.92401 23.0636 3.35751 20.6871 3.35751C18.3382 3.35751 16.1966 3.91019 14.2622 5.01555C12.3278 6.09326 10.7942 7.59931 9.66117 9.53368C8.52818 11.468 7.96169 13.6235 7.96169 16C7.96169 18.3765 8.52818 20.532 9.66117 22.4663C10.8218 24.4007 12.3693 25.9206 14.3037 27.0259C16.2657 28.1036 18.3935 28.6425 20.6871 28.6425C22.732 28.6425 24.5144 28.228 26.0342 27.399L27.3192 30.5907C25.3019 31.5302 23.0912 32 20.6871 32ZM20.1897 21.057C21.4608 21.057 22.5524 20.6149 23.4643 19.7306C24.3762 18.8463 24.8322 17.658 24.8322 16.1658C24.8322 14.6736 24.3762 13.4853 23.4643 12.601C22.5524 11.7168 21.4608 11.2746 20.1897 11.2746C18.9185 11.2746 17.827 11.7168 16.9151 12.601C16.0308 13.4853 15.5886 14.6736 15.5886 16.1658C15.5886 17.658 16.0308 18.8463 16.9151 19.7306C17.827 20.6149 18.9185 21.057 20.1897 21.057Z" fill="black"/>
</g>
<defs>
<filter id="filter0_d_115_8" x="0.355469" y="0" width="40.4971" height="40" filterUnits="userSpaceOnUse" color-interpolation-filters="sRGB">
<feFlood flood-opacity="0" result="BackgroundImageFix"/>
<feColorMatrix in="SourceAlpha" type="matrix" values="0 0 0 0 0 0 0 0 0 0 0 0 0 0 0 0 0 0 127 0" result="hardAlpha"/>
<feOffset dy="4"/>
<feGaussianBlur stdDeviation="2"/>
<feComposite in2="hardAlpha" operator="out"/>
<feColorMatrix type="matrix" values="0 0 0 0 0 0 0 0 0 0 0 0 0 0 0 0 0 0 0.25 0"/>
<feBlend mode="normal" in2="BackgroundImageFix" result="effect1_dropShadow_115_8"/>
<feBlend mode="normal" in="SourceGraphic" in2="effect1_dropShadow_115_8" result="shape"/>
</filter>
</defs>
</svg>
