<svg width="34" height="32" viewBox="0 0 34 32" fill="none" xmlns="http://www.w3.org/2000/svg">
<path d="M17.3071 32C14.1568 32 11.3244 31.2815 8.80968 29.8446C6.32263 28.4352 4.37444 26.5147 2.96512 24.0829C1.58342 21.6235 0.892578 18.9292 0.892578 16C0.892578 13.0708 1.58342 10.3903 2.96512 7.95855C4.37444 5.52677 6.32263 3.5924 8.80968 2.15544C11.3244 0.718481 14.1568 0 17.3071 0C20.4573 0 23.2622 0.718481 25.7216 2.15544C28.2086 3.56477 30.143 5.48532 31.5247 7.9171C32.9064 10.3212 33.5972 12.9603 33.5972 15.8342C33.5972 18.4041 32.9893 20.5181 31.7734 22.1762C30.5852 23.8066 28.9686 24.6218 26.9237 24.6218C25.8736 24.6218 24.9064 24.3592 24.0221 23.8342C23.1378 23.2815 22.4746 22.5492 22.0325 21.6373C20.789 23.6269 18.8822 24.6218 16.3123 24.6218C14.82 24.6218 13.466 24.2625 12.2501 23.544C11.0342 22.8256 10.067 21.8307 9.34854 20.5596C8.63006 19.2608 8.27082 17.7962 8.27082 16.1658C8.27082 14.563 8.63006 13.1123 9.34854 11.8135C10.067 10.5147 11.0204 9.50605 12.2086 8.78757C13.4245 8.06909 14.7371 7.70985 16.1465 7.70985C17.1413 7.70985 18.0117 7.9171 18.7579 8.33161C19.5316 8.71848 20.1534 9.22971 20.6231 9.86529H20.9548V8.29016H25.0169V18.487C25.0169 19.2055 25.1966 19.8135 25.5558 20.3109C25.9427 20.7807 26.4539 21.0155 27.0895 21.0155C27.9461 21.0155 28.5817 20.532 28.9962 19.5648C29.4383 18.5976 29.6594 17.3402 29.6594 15.7927C29.6594 13.6926 29.1206 11.7168 28.0428 9.86529C26.9928 8.01382 25.5282 6.53541 23.6491 5.43005C21.77 4.3247 19.656 3.77202 17.3071 3.77202C15.0135 3.77202 12.9271 4.28325 11.048 5.3057C9.19655 6.32815 7.73196 7.77893 6.65424 9.65803C5.57652 11.5095 5.03766 13.6235 5.03766 16C5.03766 18.3489 5.60415 20.4629 6.73714 22.342C7.87013 24.1934 9.37617 25.6442 11.2553 26.6943C13.1344 27.7168 15.1516 28.228 17.3071 28.228C19.3796 28.228 21.2173 27.772 22.82 26.8601L24.2294 30.4663C23.2069 30.9361 22.1016 31.3092 20.9133 31.5855C19.725 31.8618 18.523 32 17.3071 32ZM16.6024 20.601C17.763 20.601 18.744 20.2003 19.5454 19.399C20.3744 18.5976 20.789 17.5199 20.789 16.1658C20.789 14.8117 20.3744 13.734 19.5454 12.9326C18.744 12.1313 17.763 11.7306 16.6024 11.7306C15.4418 11.7306 14.447 12.1451 13.618 12.9741C12.8166 13.7755 12.4159 14.8394 12.4159 16.1658C12.4159 17.4922 12.8166 18.5699 13.618 19.399C14.447 20.2003 15.4418 20.601 16.6024 20.601Z" fill="black"/>
</svg>
