<svg width="113" height="29" viewBox="0 0 113 29" fill="none" xmlns="http://www.w3.org/2000/svg">
<path d="M3.3711 15.4083C3.9751 30.0133 24.8147 30.0092 25.4186 15.4083C25.4186 13.9628 25.1335 12.5314 24.5795 11.196C24.0255 9.86052 23.2135 8.6471 22.1898 7.62499C21.1662 6.60287 19.9509 5.79209 18.6135 5.23892C17.276 4.68579 15.8425 4.40107 14.3949 4.40107C12.9472 4.40107 11.5137 4.68579 10.1763 5.23892C8.8388 5.79209 7.62355 6.60287 6.59989 7.62499C5.57623 8.6471 4.76423 9.86052 4.21023 11.196C3.65624 12.5314 3.3711 13.9628 3.3711 15.4083ZM24.1901 15.4083C24.1901 18.0022 23.1581 20.4899 21.3211 22.3241C19.4842 24.1583 16.9927 25.1888 14.3949 25.1888C11.797 25.1888 9.30555 24.1583 7.46859 22.3241C5.63163 20.4899 4.59963 18.0022 4.59963 15.4083C5.13786 2.43184 23.6519 2.43594 24.1901 15.4083Z" fill="white"/>
<path d="M8.76179 1.80005L0.794922 9.7549V21.0041L8.76179 28.959H20.028L27.9948 21.0041V9.7549L20.028 1.80005H8.76179ZM26.8608 20.5365L19.5596 27.8267H9.23018L1.92894 20.5365V10.2226L9.23018 2.93236H19.5596L26.8608 10.2226V20.5365Z" fill="white"/>
<path d="M26.5937 0.958988C26.1522 0.958177 25.7202 1.08824 25.3527 1.33271C24.9852 1.57718 24.6986 1.92506 24.5292 2.33228C24.3598 2.7395 24.3153 3.18775 24.4012 3.62027C24.4872 4.05279 24.6998 4.45008 25.0121 4.76188C25.3243 5.07367 25.7222 5.28593 26.1554 5.37177C26.5886 5.45757 27.0375 5.41311 27.4453 5.24399C27.8532 5.07487 28.2016 4.78871 28.4464 4.42175C28.6913 4.05476 28.8215 3.62351 28.8207 3.18257C28.8196 2.59317 28.5846 2.02822 28.1673 1.61146C27.7498 1.19469 27.184 0.960073 26.5937 0.958988ZM26.5937 4.29847C26.3725 4.29928 26.1561 4.23453 25.9717 4.11239C25.7874 3.99028 25.6435 3.81628 25.5583 3.61246C25.4731 3.40863 25.4504 3.18413 25.493 2.9674C25.5357 2.75066 25.6418 2.55145 25.7979 2.39497C25.9541 2.2385 26.1532 2.13182 26.3701 2.08843C26.587 2.04503 26.8119 2.06689 27.0164 2.15123C27.2208 2.23557 27.3956 2.37859 27.5186 2.56219C27.6416 2.74578 27.7072 2.96169 27.7072 3.18257C27.7072 3.47781 27.59 3.76102 27.3813 3.97019C27.1727 4.17933 26.8894 4.29739 26.5937 4.29847Z" fill="white"/>
<path d="M32.0348 9.75497H33.7616V12.8161L33.6831 14.0405H33.7616C33.9919 13.6638 34.332 13.3551 34.782 13.1144C35.2425 12.8632 35.7343 12.7376 36.2576 12.7376C37.2309 12.7376 37.9739 13.0254 38.4867 13.601C38.9995 14.1661 39.2559 14.9406 39.2559 15.9243V20.9948H37.5291V16.1598C37.5291 15.5528 37.3669 15.0975 37.0425 14.794C36.7285 14.4905 36.3152 14.3388 35.8024 14.3388C35.4151 14.3388 35.0646 14.4487 34.7506 14.6685C34.4471 14.8882 34.2064 15.1813 34.0285 15.5476C33.8506 15.9034 33.7616 16.2854 33.7616 16.6935V20.9948H32.0348V9.75497Z" fill="white"/>
<path d="M44.1754 21.2459C43.5998 21.2459 43.087 21.1361 42.637 20.9163C42.1869 20.686 41.8364 20.3669 41.5852 19.9587C41.334 19.5401 41.2084 19.0691 41.2084 18.5459C41.2084 17.7191 41.5172 17.065 42.1346 16.5836C42.7625 16.1022 43.5527 15.8615 44.505 15.8615C44.976 15.8615 45.3998 15.9086 45.7766 16.0028C46.1533 16.0865 46.4516 16.1807 46.6714 16.2854V15.8772C46.6714 15.3853 46.4882 14.9877 46.1219 14.6842C45.7556 14.3702 45.2847 14.2132 44.7091 14.2132C44.3009 14.2132 43.9137 14.3022 43.5474 14.4801C43.1916 14.658 42.9038 14.9039 42.684 15.2179L41.4753 14.2917C41.8311 13.7998 42.2916 13.4178 42.8567 13.1458C43.4219 12.8737 44.0498 12.7376 44.7405 12.7376C45.9021 12.7376 46.7969 13.0254 47.4249 13.601C48.0528 14.1661 48.3667 14.9667 48.3667 16.0028V20.9948H46.6714V20.0372H46.5929C46.3626 20.3826 46.0382 20.6704 45.6196 20.9006C45.201 21.1308 44.7196 21.2459 44.1754 21.2459ZM44.4736 19.8174C44.8922 19.8174 45.269 19.718 45.6039 19.5192C45.9388 19.3203 46.2004 19.0535 46.3888 18.7186C46.5772 18.3837 46.6714 18.0226 46.6714 17.6354C46.4306 17.4993 46.1481 17.3895 45.8237 17.3057C45.5097 17.222 45.18 17.1802 44.8347 17.1802C44.1858 17.1802 43.7097 17.311 43.4062 17.5726C43.1027 17.8238 42.9509 18.1534 42.9509 18.5616C42.9509 18.9279 43.0922 19.2314 43.3748 19.4721C43.6573 19.7023 44.0236 19.8174 44.4736 19.8174Z" fill="white"/>
<path d="M50.7713 9.75497H52.4981V20.9948H50.7713V9.75497Z" fill="white"/>
<path d="M58.7251 21.2459C57.9193 21.2459 57.1972 21.0628 56.5588 20.6965C55.9204 20.3198 55.4233 19.807 55.0675 19.1581C54.7116 18.5093 54.5337 17.7871 54.5337 16.9918C54.5337 16.1964 54.7116 15.4743 55.0675 14.8254C55.4233 14.1766 55.9204 13.669 56.5588 13.3027C57.1972 12.926 57.9193 12.7376 58.7251 12.7376C59.5309 12.7376 60.253 12.926 60.8914 13.3027C61.5298 13.6795 62.0269 14.1923 62.3827 14.8411C62.7386 15.49 62.9165 16.2069 62.9165 16.9918C62.9165 17.7871 62.7386 18.5093 62.3827 19.1581C62.0269 19.807 61.5298 20.3198 60.8914 20.6965C60.253 21.0628 59.5309 21.2459 58.7251 21.2459ZM58.7251 19.6604C59.1646 19.6604 59.5728 19.5558 59.9496 19.3465C60.3263 19.1267 60.6246 18.818 60.8443 18.4203C61.0746 18.0121 61.1897 17.536 61.1897 16.9918C61.1897 16.4476 61.0746 15.9766 60.8443 15.5789C60.6246 15.1813 60.3263 14.8778 59.9496 14.6685C59.5728 14.4487 59.1646 14.3388 58.7251 14.3388C58.2856 14.3388 57.8774 14.4487 57.5007 14.6685C57.1239 14.8778 56.8204 15.1813 56.5902 15.5789C56.3704 15.9766 56.2605 16.4476 56.2605 16.9918C56.2605 17.536 56.3704 18.0121 56.5902 18.4203C56.8204 18.818 57.1239 19.1267 57.5007 19.3465C57.8774 19.5558 58.2856 19.6604 58.7251 19.6604Z" fill="white"/>
<path d="M63.9833 12.9888H65.8513L67.4682 18.7186H67.531L69.3363 12.9888H71.1102L72.8998 18.7186H72.9625L74.5795 12.9888H76.4161L73.8573 20.9948H72.0364L70.1997 15.2493H70.1526L68.3316 20.9948H66.542L63.9833 12.9888Z" fill="white"/>
<path d="M81.5525 21.2459C80.7676 21.2459 80.0612 21.0628 79.4333 20.6965C78.8158 20.3302 78.3292 19.8279 77.9733 19.1895C77.628 18.5406 77.4553 17.8133 77.4553 17.0075C77.4553 16.2435 77.6228 15.5371 77.9576 14.8882C78.303 14.2289 78.7792 13.7056 79.3862 13.3184C79.9932 12.9312 80.6839 12.7376 81.4583 12.7376C82.2641 12.7376 82.9601 12.9155 83.5462 13.2713C84.1427 13.6272 84.5927 14.1138 84.8962 14.7313C85.2101 15.3487 85.3671 16.0447 85.3671 16.8191C85.3671 16.9656 85.3514 17.1488 85.32 17.3685H79.1821C79.2449 18.1116 79.5065 18.6872 79.967 19.0953C80.4379 19.493 80.9821 19.6918 81.5996 19.6918C82.0915 19.6918 82.5153 19.582 82.8711 19.3622C83.2374 19.1319 83.5305 18.8232 83.7502 18.436L85.2102 19.1267C84.8334 19.786 84.3415 20.3041 83.7345 20.6808C83.1275 21.0576 82.4002 21.2459 81.5525 21.2459ZM83.6089 16.0499C83.588 15.7673 83.4991 15.49 83.3421 15.2179C83.1851 14.9353 82.9444 14.6999 82.62 14.5115C82.306 14.3231 81.9188 14.2289 81.4583 14.2289C80.9036 14.2289 80.4327 14.3964 80.0455 14.7313C79.6687 15.0557 79.4071 15.4952 79.2606 16.0499H83.6089Z" fill="white"/>
<path d="M90.0507 21.2459C89.4751 21.2459 88.9623 21.1361 88.5123 20.9163C88.0623 20.686 87.7117 20.3669 87.4605 19.9587C87.2094 19.5401 87.0838 19.0691 87.0838 18.5459C87.0838 17.7191 87.3925 17.065 88.01 16.5836C88.6379 16.1022 89.428 15.8615 90.3804 15.8615C90.8513 15.8615 91.2752 15.9086 91.6519 16.0028C92.0287 16.0865 92.3269 16.1807 92.5467 16.2854V15.8772C92.5467 15.3853 92.3636 14.9877 91.9973 14.6842C91.631 14.3702 91.16 14.2132 90.5844 14.2132C90.1763 14.2132 89.7891 14.3022 89.4228 14.4801C89.067 14.658 88.7792 14.9039 88.5594 15.2179L87.3507 14.2917C87.7065 13.7998 88.1669 13.4178 88.7321 13.1458C89.2972 12.8737 89.9251 12.7376 90.6158 12.7376C91.7775 12.7376 92.6723 13.0254 93.3002 13.601C93.9281 14.1661 94.2421 14.9667 94.2421 16.0028V20.9948H92.5467V20.0372H92.4682C92.238 20.3826 91.9135 20.6704 91.4949 20.9006C91.0763 21.1308 90.5949 21.2459 90.0507 21.2459ZM90.349 19.8174C90.7676 19.8174 91.1443 19.718 91.4792 19.5192C91.8141 19.3203 92.0758 19.0535 92.2641 18.7186C92.4525 18.3837 92.5467 18.0226 92.5467 17.6354C92.306 17.4993 92.0234 17.3895 91.699 17.3057C91.3851 17.222 91.0554 17.1802 90.71 17.1802C90.0612 17.1802 89.585 17.311 89.2815 17.5726C88.978 17.8238 88.8263 18.1534 88.8263 18.5616C88.8263 18.9279 88.9675 19.2314 89.2501 19.4721C89.5327 19.7023 89.899 19.8174 90.349 19.8174Z" fill="white"/>
<path d="M95.5986 12.9888H97.5294L99.7428 18.7657H99.8056L102.066 12.9888H103.95L100.622 20.9948H98.8951L95.5986 12.9888Z" fill="white"/>
<path d="M109.013 21.2459C108.228 21.2459 107.522 21.0628 106.894 20.6965C106.277 20.3302 105.79 19.8279 105.434 19.1895C105.089 18.5406 104.916 17.8133 104.916 17.0075C104.916 16.2435 105.084 15.5371 105.418 14.8882C105.764 14.2289 106.24 13.7056 106.847 13.3184C107.454 12.9312 108.145 12.7376 108.919 12.7376C109.725 12.7376 110.421 12.9155 111.007 13.2713C111.604 13.6272 112.054 14.1138 112.357 14.7313C112.671 15.3487 112.828 16.0447 112.828 16.8191C112.828 16.9656 112.812 17.1488 112.781 17.3685H106.643C106.706 18.1116 106.967 18.6872 107.428 19.0953C107.899 19.493 108.443 19.6918 109.06 19.6918C109.552 19.6918 109.976 19.582 110.332 19.3622C110.698 19.1319 110.991 18.8232 111.211 18.436L112.671 19.1267C112.294 19.786 111.802 20.3041 111.195 20.6808C110.588 21.0576 109.861 21.2459 109.013 21.2459ZM111.07 16.0499C111.049 15.7673 110.96 15.49 110.803 15.2179C110.646 14.9353 110.405 14.6999 110.081 14.5115C109.767 14.3231 109.38 14.2289 108.919 14.2289C108.364 14.2289 107.894 14.3964 107.506 14.7313C107.13 15.0557 106.868 15.4952 106.721 16.0499H111.07Z" fill="white"/>
</svg>
